<?xml version="1.0" standalone="no"?>
<!DOCTYPE svg PUBLIC "-//W3C//DTD SVG 20010904//EN"
 "http://www.w3.org/TR/2001/REC-SVG-20010904/DTD/svg10.dtd">
<svg version="1.0" xmlns="http://www.w3.org/2000/svg"
 width="1550.000000pt" height="308.000000pt" viewBox="0 0 1550.000000 308.000000"
 preserveAspectRatio="xMidYMid meet">

<g transform="translate(0.000000,308.000000) scale(0.100000,-0.100000)"
fill="#000000" stroke="none">
<path d="M2040 1918 c-10 -24 -34 -79 -53 -123 l-34 -80 -128 -12 c-194 -19
-199 -37 -49 -171 l92 -81 -30 -127 c-27 -119 -28 -127 -12 -145 9 -11 22 -19
28 -19 7 0 62 30 124 66 l112 66 110 -67 c61 -36 118 -65 127 -63 36 7 39 33
14 150 -13 62 -24 120 -25 129 -1 9 43 55 97 103 53 48 97 93 97 100 0 36 -24
45 -155 58 l-129 13 -52 120 c-49 115 -52 120 -83 123 -29 3 -33 -1 -51 -40z"/>
</g>
</svg>
