<?xml version="1.0" standalone="no"?>
<!DOCTYPE svg PUBLIC "-//W3C//DTD SVG 20010904//EN"
 "http://www.w3.org/TR/2001/REC-SVG-20010904/DTD/svg10.dtd">
<svg version="1.0" xmlns="http://www.w3.org/2000/svg"
 width="1550.000000pt" height="308.000000pt" viewBox="0 0 1550.000000 308.000000"
 preserveAspectRatio="xMidYMid meet">

<g transform="translate(0.000000,308.000000) scale(0.100000,-0.100000)"
fill="#000000" stroke="none">
<path d="M4735 2362 c-50 -10 -74 -82 -42 -126 21 -29 94 -27 118 3 49 60 1
138 -76 123z"/>
<path d="M5436 2090 c-63 -16 -153 -70 -196 -116 l-40 -44 0 48 c0 59 -21 92
-59 92 -15 0 -32 -5 -39 -12 -17 -17 -17 -869 0 -886 20 -20 65 -14 82 10 14
19 16 67 16 316 0 321 0 321 60 394 17 21 59 51 93 68 151 74 297 38 359 -87
22 -47 23 -56 26 -368 2 -203 7 -324 14 -332 17 -21 65 -16 82 9 14 19 16 64
16 293 0 311 -8 386 -50 471 -31 64 -73 104 -137 131 -46 19 -174 26 -227 13z"/>
<path d="M6410 2084 c-101 -27 -201 -101 -261 -195 -94 -147 -97 -377 -6 -531
32 -54 121 -139 175 -167 130 -66 291 -67 422 -1 62 31 157 125 188 186 76
150 73 356 -9 500 -34 60 -119 143 -177 173 -98 50 -226 63 -332 35z m266
-119 c69 -34 146 -119 175 -193 29 -75 32 -213 6 -288 -69 -201 -289 -299
-471 -210 -71 35 -148 119 -177 194 -31 81 -32 223 0 304 24 63 92 145 148
180 89 54 223 60 319 13z"/>
<path d="M8491 2085 c-132 -37 -203 -123 -203 -246 0 -136 76 -199 338 -278
55 -17 116 -41 135 -53 46 -31 71 -82 65 -132 -6 -52 -33 -86 -92 -116 -40
-21 -63 -25 -129 -25 -98 0 -166 29 -244 105 -55 54 -78 61 -104 32 -26 -29
-20 -49 29 -102 148 -158 443 -174 577 -31 115 123 79 300 -76 375 -29 14 -99
39 -156 55 -183 52 -241 98 -241 187 0 84 83 143 201 144 84 0 143 -20 203
-70 56 -46 79 -50 101 -16 20 31 11 51 -47 100 -84 72 -242 103 -357 71z"/>
<path d="M4710 2071 c-6 -13 -10 -172 -10 -450 0 -467 -1 -461 55 -461 54 0
55 8 55 471 0 400 -1 427 -18 442 -25 23 -69 22 -82 -2z"/>
<path d="M3627 2062 c-15 -17 -17 -75 -17 -624 0 -573 1 -606 18 -621 23 -21
56 -22 76 -1 14 13 16 51 16 256 l0 241 55 -52 c30 -29 81 -64 112 -79 52 -24
69 -27 168 -27 101 0 115 2 170 29 153 75 245 237 245 431 0 197 -93 361 -248
433 -51 24 -68 27 -172 27 -103 0 -121 -3 -171 -26 -30 -14 -78 -50 -107 -79
l-52 -53 0 65 c0 50 -4 69 -18 81 -24 22 -55 21 -75 -1z m548 -107 c55 -27
126 -100 154 -160 90 -192 16 -437 -158 -522 -52 -25 -176 -30 -240 -8 -178
59 -269 301 -190 510 28 75 113 164 179 188 63 23 201 18 255 -8z"/>
<path d="M7232 2068 c-17 -17 -17 -1239 0 -1256 15 -15 61 -15 76 0 9 9 12 80
12 260 l0 248 54 -54 c30 -29 80 -67 113 -82 53 -27 67 -29 168 -29 98 0 116
3 167 27 68 32 135 92 179 159 90 142 98 364 17 523 -34 66 -122 150 -191 182
-57 27 -71 29 -177 29 -107 0 -119 -2 -173 -29 -32 -16 -78 -51 -103 -78 -24
-26 -47 -48 -49 -48 -3 0 -5 31 -5 68 0 74 -10 92 -50 92 -14 0 -31 -5 -38
-12z m559 -120 c60 -35 115 -98 148 -167 23 -50 26 -68 26 -166 0 -98 -3 -116
-26 -166 -33 -69 -88 -132 -147 -167 -38 -21 -61 -27 -134 -30 -83 -4 -92 -3
-153 27 -36 18 -78 48 -95 69 -124 150 -125 394 -1 534 18 21 60 51 94 68 58
30 67 31 152 28 76 -3 98 -8 136 -30z"/>
</g>
</svg>
